<?xml version="1.0" encoding="utf-8"?>
<!-- Generator: Adobe Illustrator 27.1.1, SVG Export Plug-In . SVG Version: 6.00 Build 0)  -->
<svg version="1.1" id="Ebene_1" xmlns="http://www.w3.org/2000/svg" xmlns:xlink="http://www.w3.org/1999/xlink" x="0px" y="0px"
	 viewBox="0 0 155.1 31.6" style="enable-background:new 0 0 155.1 31.6;" xml:space="preserve">
<style type="text/css">
	.st0{clip-path:url(#SVGID_00000147911331101372921520000004921664649256181681_);}
	.st1{clip-path:url(#SVGID_00000029026258271203838210000013284160273847828414_);}
	.st2{clip-path:url(#SVGID_00000076578901807117826710000011948020159991519933_);}
	.st3{clip-path:url(#SVGID_00000070099062544212829770000005620076244726870681_);}
	.st4{fill:#AFCA0B;}
	.st5{fill:#009FE3;}
	.st6{fill:#E3051B;}
</style>
<g>
	<g>
		<defs>
			<rect id="SVGID_1_" x="0.1" y="0" width="155" height="31.4"/>
		</defs>
		<clipPath id="SVGID_00000142888297633760116850000010918935869563175825_">
			<use xlink:href="#SVGID_1_"  style="overflow:visible;"/>
		</clipPath>
		<path style="clip-path:url(#SVGID_00000142888297633760116850000010918935869563175825_);" d="M9.9,0.1c1.5,0,2.8,0.3,4.1,0.8v7.7
			l-0.4-0.9c-0.7-1.3-2.1-2.1-3.6-2.1c-2.3,0-4.1,1.8-4.1,3.9s1.8,3.9,4.1,3.9c1.6,0,2.9-0.9,3.6-2.1l0.4-1v7.8
			c-1.3,0.5-2.6,0.9-4.1,0.9c-5.4,0-9.9-4.2-9.9-9.4S4.5,0.1,9.9,0.1"/>
	</g>
	<g>
		<defs>
			<rect id="SVGID_00000072242231467561988010000011473887857024933764_" x="0.1" y="0" width="155" height="31.4"/>
		</defs>
		<clipPath id="SVGID_00000174577468309692604270000011684414538301892231_">
			<use xlink:href="#SVGID_00000072242231467561988010000011473887857024933764_"  style="overflow:visible;"/>
		</clipPath>
		<path style="clip-path:url(#SVGID_00000174577468309692604270000011684414538301892231_);" d="M24.5,13.3c-2.3,0-4.1-1.8-4.1-3.9
			s1.8-3.9,4.1-3.9c2.2,0,4.1,1.8,4.1,3.9S26.8,13.3,24.5,13.3 M24.5,0.1c-5.4,0-9.9,4.2-9.9,9.3s4.4,9.4,9.9,9.4
			c5.4,0,9.8-4.2,9.8-9.4S29.9,0.1,24.5,0.1"/>
	</g>
	<g>
		<defs>
			<rect id="SVGID_00000064354095169939619750000012554843163028491161_" x="0.1" y="0" width="155" height="31.4"/>
		</defs>
		<clipPath id="SVGID_00000089560005273566368850000017928243207642041477_">
			<use xlink:href="#SVGID_00000064354095169939619750000012554843163028491161_"  style="overflow:visible;"/>
		</clipPath>
		<path style="clip-path:url(#SVGID_00000089560005273566368850000017928243207642041477_);" d="M78.8,0.1c1.5,0,2.8,0.3,4.1,0.8
			v7.7l-0.4-0.9c-0.7-1.3-2.1-2.1-3.6-2.1c-2.3,0-4.1,1.8-4.1,3.9s1.8,3.9,4.1,3.9c1.6,0,2.9-0.9,3.6-2.1l0.4-1.1v7.9
			c-1.3,0.5-2.6,0.9-4.1,0.9c-5.4,0-9.9-4.2-9.9-9.4S73.4,0.1,78.8,0.1"/>
	</g>
	<g>
		<defs>
			<rect id="SVGID_00000093138221972518449060000006878201791934034363_" x="0.1" y="0" width="155" height="31.4"/>
		</defs>
		<clipPath id="SVGID_00000078004008824943876710000017576785847818101168_">
			<use xlink:href="#SVGID_00000093138221972518449060000006878201791934034363_"  style="overflow:visible;"/>
		</clipPath>
		<path style="clip-path:url(#SVGID_00000078004008824943876710000017576785847818101168_);" d="M58.1,0.1c5.3,0,9.8,4,9.9,9v9.7
			h-5.8V9.9c0-0.2,0-0.4,0-0.6c0-2.1-1.8-3.9-4-3.9c-2.3,0-4.1,1.8-4.1,3.9s1.8,3.8,4.1,3.8c1.2,0,2.3-0.5,3-1.3v6.3
			c-1,0.3-2,0.5-3,0.5c-5.4,0-9.9-4.2-9.9-9.3S52.7,0.1,58.1,0.1"/>
	</g>
</g>
<polygon points="94.9,0 90.4,4.5 90.4,0 84.7,0 84.7,18.7 90.4,18.7 90.4,14.2 95,18.8 102.3,18.8 92.8,9.4 102.3,0 "/>
<polygon points="102.9,9.4 110.7,9.4 120.1,18.7 112.2,18.7 "/>
<polygon points="147.4,18.7 138.1,9.4 130.2,9.4 133.4,12.6 131.1,14.8 135,18.7 137.3,16.4 139.6,18.7 "/>
<polygon points="133.8,18.7 124.4,9.4 116.5,9.4 119.7,12.6 117.5,14.8 121.3,18.7 123.6,16.5 125.9,18.7 "/>
<polygon class="st4" points="112.2,0 102.9,9.4 110.8,9.4 120.1,0 "/>
<polygon points="117.7,3.9 119.8,6.1 123.7,2.2 121.6,0.1 "/>
<polygon points="131.4,3.9 133.5,6.1 137.4,2.2 135.2,0.1 "/>
<polygon points="148.8,0 145,3.9 147.3,6.2 155,6.2 155.1,6.2 "/>
<polygon points="147.3,12.5 144.9,14.8 148.8,18.7 155,12.5 "/>
<polygon class="st5" points="125.9,0 116.6,9.4 124.4,9.4 133.8,0 "/>
<polygon class="st6" points="139.6,0 130.2,9.4 138.1,9.4 147.4,0 "/>
<g>
	<path d="M39.4,18.7C37,18.3,34,16.6,34,16.6l2.4-4.5c0,0,2.2,1.6,3.6,1.9c0.6,0.1,1.5-0.1,1.9-0.6c0.3-0.4,0.3-1.1-0.3-1.3
		c-1.2-0.4-3-0.7-4.2-1.6c-2.5-1.8-2.7-3.9-2-6.4c0.8-3.2,4.5-4.5,7.8-4c1.3,0.2,4.2,1.4,4.2,1.4l-2.4,4.6c0,0-1.4-1-2.9-1.2
		c-0.8-0.2-1.3,0.2-1.5,0.5c-0.1,0.2-0.2,0.8,0.5,1c1.3,0.4,2.2,0.7,3.2,1c2.8,1,4.2,3.9,3,7.3C46.3,17.5,42.7,19.2,39.4,18.7"/>
	<g>
		<path d="M1.4,31.4v-7.5h2.1c0.5,0,0.9,0,1.2,0.1c0.4,0.1,0.7,0.3,0.9,0.6c0.3,0.3,0.5,0.7,0.6,1.2c0.2,0.5,0.2,1,0.2,1.7
			c0,0.9-0.1,1.6-0.4,2.2s-0.6,1-1,1.3s-0.9,0.4-1.5,0.4C3.7,31.4,1.4,31.4,1.4,31.4z M2.2,30.5h1.3c0.5,0,0.9-0.1,1.2-0.3
			s0.5-0.5,0.6-0.8c0.2-0.5,0.3-1.1,0.3-1.8c0-0.8-0.1-1.4-0.3-1.8s-0.5-0.7-0.8-0.9c-0.2-0.1-0.6-0.1-1-0.1H2.2V30.5z"/>
		<path d="M7.9,31.4v-7.5h2.7c0.6,0,1,0.1,1.3,0.2s0.5,0.4,0.7,0.7s0.3,0.7,0.3,1.1c0,0.6-0.1,1-0.4,1.4S11.6,27.9,11,28
			c0.2,0.1,0.4,0.3,0.5,0.4c0.2,0.3,0.5,0.6,0.6,1l1.1,2h-1l-0.8-1.6c-0.3-0.6-0.6-1-0.7-1.2s-0.3-0.4-0.5-0.4s-0.4-0.1-0.6-0.1H8.7
			v3.3L7.9,31.4L7.9,31.4z M8.7,27.2h1.8c0.4,0,0.7,0,0.9-0.1s0.4-0.2,0.5-0.4s0.2-0.4,0.2-0.7c0-0.4-0.1-0.7-0.3-0.9
			c-0.2-0.2-0.6-0.3-1-0.3H8.7V27.2z"/>
		<path d="M18.3,23.9h0.8v4.3c0,0.7-0.1,1.3-0.2,1.8c-0.1,0.5-0.4,0.8-0.8,1.1s-0.9,0.4-1.4,0.4c-0.8,0-1.4-0.2-1.8-0.7
			c-0.4-0.5-0.6-1.3-0.6-2.6v-4.3h0.8v4.3c0,0.7,0.1,1.2,0.2,1.5s0.3,0.5,0.5,0.7s0.5,0.2,0.9,0.2c0.6,0,1-0.2,1.3-0.5
			s0.4-1,0.4-1.9L18.3,23.9L18.3,23.9z"/>
		<path d="M25,28.8l0.8,0.2c-0.2,0.8-0.5,1.5-1,1.9s-1,0.6-1.6,0.6c-0.6,0-1.1-0.1-1.5-0.4s-0.7-0.7-1-1.3s-0.4-1.3-0.4-2.2
			s0.1-1.5,0.4-2.1s0.6-1,1-1.3c0.4-0.3,0.9-0.4,1.5-0.4c0.6,0,1.1,0.2,1.5,0.5c0.4,0.4,0.7,0.9,0.9,1.6L25,26.2
			c-0.3-1-0.8-1.6-1.6-1.6c-0.4,0-0.8,0.1-1.1,0.3c-0.3,0.2-0.5,0.5-0.7,1c-0.2,0.4-0.3,1-0.3,1.7c0,1,0.2,1.8,0.5,2.3
			s0.8,0.8,1.4,0.8c0.4,0,0.8-0.2,1.1-0.5C24.7,29.9,24.9,29.4,25,28.8z"/>
		<path d="M27.2,31.4v-7.5H28v3.7l3-3.7h1.1l-2.6,3l2.7,4.5h-1.1l-2.2-3.8l-1,1.2v2.6C28,31.4,27.2,31.4,27.2,31.4z"/>
		<path d="M36,30.2v-2h-1.7v-0.9H36v-2h0.7v2h1.7v0.9h-1.7v2C36.8,30.2,36,30.2,36,30.2z"/>
		<path d="M42.9,31.4l-2.4-7.5h0.9l1.6,5.4c0.1,0.4,0.2,0.8,0.3,1.2c0.1-0.4,0.2-0.8,0.3-1.2l1.7-5.4h0.8l-2.4,7.5H42.9z"/>
		<path d="M47.2,31.4v-7.5h4.4v0.9h-3.6v2.3h3.4V28h-3.4v2.5h3.8v0.9L47.2,31.4L47.2,31.4z"/>
		<path d="M53.4,31.4v-7.5h2.7c0.6,0,1,0.1,1.3,0.2c0.3,0.1,0.5,0.4,0.7,0.7s0.3,0.7,0.3,1.1c0,0.6-0.2,1-0.4,1.4
			c-0.3,0.4-0.7,0.6-1.3,0.7c0.2,0.1,0.4,0.3,0.5,0.4c0.2,0.3,0.5,0.6,0.6,1l1.1,2h-1l-0.8-1.6c-0.3-0.6-0.6-1-0.7-1.2
			s-0.3-0.4-0.5-0.4s-0.4-0.1-0.6-0.1h-0.9v3.3L53.4,31.4L53.4,31.4z M54.2,27.2h1.8c0.4,0,0.7,0,0.9-0.1s0.3-0.2,0.5-0.4
			s0.2-0.4,0.2-0.7c0-0.4-0.1-0.7-0.3-0.9c-0.2-0.2-0.5-0.3-1-0.3h-1.9C54.2,24.7,54.2,27.2,54.2,27.2z"/>
		<path d="M60.2,31.4v-7.5h2.3c0.5,0,1,0,1.2,0.1c0.4,0.1,0.6,0.4,0.9,0.7c0.2,0.4,0.3,0.8,0.3,1.3c0,0.7-0.2,1.2-0.5,1.6
			c-0.3,0.4-0.9,0.6-1.8,0.6H61v3L60.2,31.4L60.2,31.4z M61,27.5h1.6c0.5,0,0.9-0.1,1.1-0.3s0.3-0.6,0.3-1c0-0.3-0.1-0.5-0.2-0.8
			c-0.1-0.2-0.2-0.4-0.4-0.4c-0.2-0.1-0.5-0.1-0.9-0.1H61L61,27.5L61,27.5z"/>
		<path d="M64.8,31.4l2.4-7.5h0.9l2.5,7.5h-0.9l-0.7-2.3h-2.6l-0.7,2.3H64.8z M66.6,28.3h2.1L68,26.3c-0.2-0.6-0.3-1.1-0.4-1.5
			c-0.1,0.5-0.2,1-0.3,1.4L66.6,28.3z"/>
		<path d="M75.8,28.8l0.8,0.2c-0.2,0.8-0.5,1.5-0.9,1.9s-1,0.6-1.7,0.6c-0.6,0-1.1-0.1-1.5-0.4s-0.7-0.7-1-1.3
			c-0.3-0.6-0.4-1.3-0.4-2.2s0.1-1.5,0.4-2.1s0.6-1,1.1-1.3c0.4-0.3,0.9-0.4,1.5-0.4c0.6,0,1.1,0.2,1.5,0.5c0.4,0.4,0.7,0.9,0.9,1.6
			l-0.8,0.2c-0.3-1-0.8-1.6-1.6-1.6c-0.4,0-0.8,0.1-1.1,0.3c-0.3,0.2-0.5,0.5-0.7,1s-0.3,1-0.3,1.7c0,1,0.2,1.8,0.5,2.3
			s0.8,0.8,1.4,0.8c0.4,0,0.8-0.2,1.2-0.5C75.4,29.9,75.7,29.4,75.8,28.8z"/>
		<path d="M77.8,31.4v-7.5h0.8v3.7l3.1-3.7h1.1l-2.6,3l2.7,4.5h-1.1l-2.2-3.8l-1,1.2v2.6C78.6,31.4,77.8,31.4,77.8,31.4z"/>
		<path d="M88,23.9h0.8v4.3c0,0.7-0.1,1.3-0.2,1.8s-0.4,0.8-0.8,1.1c-0.4,0.3-0.8,0.4-1.4,0.4c-0.8,0-1.4-0.2-1.8-0.7
			S84,29.5,84,28.2v-4.3h0.8v4.3c0,0.7,0.1,1.2,0.2,1.5s0.3,0.5,0.5,0.7s0.5,0.2,0.9,0.2c0.6,0,1-0.2,1.3-0.5s0.4-1,0.4-1.9L88,23.9
			L88,23.9z"/>
		<path d="M90.3,31.4v-7.5h0.8l3.2,5.9v-5.9h0.8v7.5h-0.8l-3.2-5.9v5.9H90.3z"/>
		<path d="M99.7,28.5v-0.9h2.6v2.8c-0.4,0.4-0.8,0.7-1.2,0.9c-0.4,0.2-0.9,0.3-1.3,0.3c-0.6,0-1.1-0.1-1.6-0.5
			c-0.5-0.3-0.8-0.7-1.1-1.3c-0.3-0.6-0.4-1.3-0.4-2.1c0-0.8,0.1-1.5,0.4-2.1c0.3-0.6,0.6-1,1.1-1.3s1-0.4,1.6-0.4
			c0.4,0,0.8,0.1,1.2,0.2s0.6,0.4,0.8,0.7s0.4,0.7,0.5,1.3l-0.7,0.2c-0.1-0.4-0.2-0.7-0.4-1c-0.2-0.2-0.3-0.4-0.6-0.5
			c-0.2-0.1-0.5-0.2-0.8-0.2c-0.4,0-0.8,0.1-1.2,0.3s-0.6,0.5-0.8,1c-0.2,0.5-0.3,1-0.3,1.7c0,1,0.2,1.8,0.6,2.2s1,0.8,1.6,0.8
			c0.3,0,0.7-0.1,1-0.2c0.3-0.1,0.6-0.3,0.8-0.5v-1.4L99.7,28.5L99.7,28.5z"/>
	</g>
	<g>
		<path d="M109.8,29l0.8-0.1c0,0.4,0.1,0.7,0.3,1s0.3,0.4,0.6,0.5c0.3,0.1,0.6,0.2,0.9,0.2c0.5,0,0.9-0.1,1.1-0.4
			c0.3-0.2,0.4-0.5,0.4-0.9c0-0.2-0.1-0.4-0.2-0.6c-0.1-0.2-0.2-0.3-0.4-0.4c-0.2-0.1-0.6-0.2-1.3-0.5c-0.6-0.2-1-0.3-1.2-0.5
			s-0.4-0.4-0.6-0.7c-0.1-0.3-0.2-0.6-0.2-0.9c0-0.6,0.2-1.1,0.6-1.5s0.9-0.6,1.6-0.6c0.5,0,0.9,0.1,1.2,0.3s0.6,0.4,0.8,0.8
			s0.3,0.7,0.3,1.2l-0.8,0.1c0-0.5-0.2-0.9-0.4-1.1s-0.6-0.4-1.1-0.4s-0.8,0.1-1.1,0.3c-0.2,0.2-0.4,0.5-0.4,0.8
			c0,0.3,0.1,0.5,0.3,0.7c0.2,0.2,0.6,0.3,1.2,0.5c0.6,0.2,1,0.3,1.3,0.4c0.4,0.2,0.7,0.4,0.8,0.8c0.2,0.3,0.3,0.7,0.3,1.1
			c0,0.4-0.1,0.8-0.3,1.2c-0.2,0.4-0.5,0.6-0.8,0.8c-0.3,0.2-0.8,0.3-1.2,0.3c-0.8,0-1.4-0.2-1.8-0.7C110,30.4,109.8,29.8,109.8,29z
			"/>
		<path d="M116,31.4v-7.5h4.4v0.9h-3.6v2.3h3.4V28h-3.4v2.5h3.8v0.9L116,31.4L116,31.4z"/>
		<path d="M122,31.4v-7.5h0.8v7.5H122z"/>
		<path d="M126.1,31.4v-6.6h-2v-0.9h4.9v0.9h-2v6.6L126.1,31.4L126.1,31.4z"/>
		<path d="M134.9,31.4h-0.8v-5.9c-0.2,0.2-0.4,0.4-0.7,0.6s-0.6,0.4-0.8,0.5v-0.9c0.4-0.2,0.8-0.5,1.1-0.9s0.5-0.7,0.7-1h0.5
			L134.9,31.4L134.9,31.4z"/>
		<path d="M138.2,27.3c-0.3-0.1-0.5-0.3-0.7-0.6s-0.2-0.6-0.2-1c0-0.6,0.2-1,0.5-1.4s0.8-0.5,1.3-0.5s0.9,0.2,1.3,0.5
			s0.5,0.8,0.5,1.4c0,0.4-0.1,0.7-0.2,0.9c-0.1,0.2-0.4,0.5-0.7,0.6c0.4,0.1,0.7,0.4,0.9,0.7s0.3,0.7,0.3,1.2c0,0.7-0.2,1.2-0.6,1.6
			s-0.9,0.6-1.4,0.6c-0.6,0-1.1-0.2-1.4-0.6s-0.6-1-0.6-1.7c0-0.5,0.1-0.9,0.3-1.2C137.5,27.7,137.8,27.4,138.2,27.3z M137.8,29.2
			c0,0.5,0.1,0.8,0.4,1.1s0.5,0.4,0.9,0.4c0.4,0,0.6-0.1,0.9-0.4s0.4-0.6,0.4-1.1c0-0.5-0.1-0.8-0.4-1.1s-0.6-0.4-0.9-0.4
			s-0.6,0.1-0.9,0.4S137.8,28.8,137.8,29.2z M138,25.8c0,0.4,0.1,0.7,0.3,0.9c0.2,0.2,0.4,0.3,0.7,0.3c0.3,0,0.5-0.1,0.7-0.3
			s0.3-0.5,0.3-0.8c0-0.4-0.1-0.6-0.3-0.9c-0.2-0.2-0.4-0.3-0.7-0.3c-0.3,0-0.5,0.1-0.7,0.3S138,25.4,138,25.8z"/>
		<path d="M142,29.4l0.8-0.1c0.2,1,0.6,1.5,1.2,1.5c0.3,0,0.6-0.1,0.9-0.4c0.2-0.3,0.4-0.7,0.4-1.1c0-0.4-0.1-0.8-0.4-1
			c-0.2-0.3-0.5-0.4-0.9-0.4c-0.1,0-0.3,0-0.5,0.1l0.1-0.8l0.1,0c0.4,0,0.7-0.1,0.9-0.3s0.4-0.5,0.4-0.9c0-0.4-0.1-0.6-0.3-0.8
			c-0.2-0.2-0.4-0.3-0.7-0.3c-0.3,0-0.5,0.1-0.7,0.3c-0.2,0.2-0.3,0.6-0.4,1l-0.8-0.2c0.1-0.6,0.3-1.1,0.6-1.5s0.7-0.5,1.2-0.5
			c0.5,0,0.9,0.2,1.3,0.5c0.4,0.4,0.5,0.8,0.5,1.4c0,0.3-0.1,0.6-0.2,0.9s-0.4,0.5-0.6,0.6c0.2,0.1,0.4,0.2,0.6,0.3s0.3,0.4,0.4,0.6
			c0.1,0.3,0.1,0.5,0.1,0.9c0,0.7-0.2,1.2-0.6,1.7s-0.9,0.7-1.5,0.7c-0.5,0-1-0.2-1.3-0.6C142.2,30.6,142,30.1,142,29.4z"/>
		<path d="M146.9,29.4l0.8-0.1c0.2,1,0.6,1.5,1.2,1.5c0.3,0,0.6-0.1,0.9-0.4c0.2-0.3,0.4-0.7,0.4-1.1c0-0.4-0.1-0.8-0.4-1
			c-0.2-0.3-0.5-0.4-0.9-0.4c-0.1,0-0.3,0-0.5,0.1l0.1-0.8l0.1,0c0.4,0,0.7-0.1,0.9-0.3s0.4-0.5,0.4-0.9c0-0.4-0.1-0.6-0.3-0.8
			c-0.2-0.2-0.4-0.3-0.7-0.3c-0.3,0-0.5,0.1-0.7,0.3c-0.2,0.2-0.3,0.6-0.4,1l-0.8-0.2c0.1-0.6,0.3-1.1,0.6-1.5s0.7-0.5,1.2-0.5
			c0.5,0,0.9,0.2,1.3,0.5c0.4,0.4,0.5,0.8,0.5,1.4c0,0.3-0.1,0.6-0.2,0.9s-0.4,0.5-0.6,0.6c0.2,0.1,0.4,0.2,0.6,0.3s0.3,0.4,0.4,0.6
			c0.1,0.3,0.1,0.5,0.1,0.9c0,0.7-0.2,1.2-0.6,1.7s-0.9,0.7-1.5,0.7c-0.5,0-1-0.2-1.3-0.6C147.2,30.6,147,30.1,146.9,29.4z"/>
	</g>
</g>
</svg>
